<svg id="DDD_BCN_shape" data-name="DDD BCN shape" xmlns="http://www.w3.org/2000/svg" width="400" height="400" viewBox="0 0 400 400">
  <defs>
    <style>
      .cls-1, .cls-2 {
        fill-rule: evenodd;
      }

      .cls-2 {
        fill: #5900a6;
      }
    </style>
  </defs>
  <path id="BCN" class="cls-1" d="M149.568,267.742a12.356,12.356,0,0,0,3.042-2.768,15.254,15.254,0,0,0,2.2-3.911,13.475,13.475,0,0,0,.882-4.966,17.2,17.2,0,0,0-1.763-8.042,15.188,15.188,0,0,0-4.76-5.493,20.418,20.418,0,0,0-6.876-3.077,33.079,33.079,0,0,0-8.022-.966h-4.5v8h3.437a19.932,19.932,0,0,1,6.524.879,9.471,9.471,0,0,1,3.79,2.285,7.107,7.107,0,0,1,1.763,3.12,15.247,15.247,0,0,1-.661,9.36,6.611,6.611,0,0,1-2.865,2.989,9.277,9.277,0,0,1-3.79.966q-2.03.089-3.967,0.088h-4.231v7.119h8.815q5.289,0,8.021,3.252a12.017,12.017,0,0,1,2.733,8,11.627,11.627,0,0,1-2.644,8,9.265,9.265,0,0,1-7.317,2.989h-9.608v7.734H140q0.53,0,2.2-.132a19.9,19.9,0,0,0,3.834-.747,25.192,25.192,0,0,0,4.5-1.8,16.086,16.086,0,0,0,4.319-3.252,16.778,16.778,0,0,0,3.306-5.229,19.537,19.537,0,0,0,1.322-7.559,14.614,14.614,0,0,0-1.322-6.372,16.293,16.293,0,0,0-3.306-4.7,15.28,15.28,0,0,0-4.275-2.988,15.08,15.08,0,0,0-4.319-1.319A10.3,10.3,0,0,0,149.568,267.742Zm-33.982,35.552h10.578V238.519H115.586v64.775ZM218.37,244.5a24.528,24.528,0,0,0-16.572-6.943v8.7a12.909,12.909,0,0,1,4.936,1.318A14.485,14.485,0,0,1,211.053,251ZM201.8,303.733a26.678,26.678,0,0,0,9.079-2.021,24.321,24.321,0,0,0,7.493-5.01l-7.317-6.416a13.784,13.784,0,0,1-4.275,3.34,14.5,14.5,0,0,1-4.98,1.406v8.7Zm-26.666-19.292a30.406,30.406,0,0,0,5.245,10.152,23.923,23.923,0,0,0,7.89,6.416,25.513,25.513,0,0,0,9.916,2.637v-8.614a13.566,13.566,0,0,1-5.421-1.933,14.355,14.355,0,0,1-4.54-4.571,24.369,24.369,0,0,1-3.041-7.382,47.139,47.139,0,0,1,0-21.05,23.219,23.219,0,0,1,3.041-7.339,14.364,14.364,0,0,1,4.5-4.439,14.833,14.833,0,0,1,5.465-1.977v-8.789a26.684,26.684,0,0,0-9.916,2.724,23.973,23.973,0,0,0-7.89,6.416,30.487,30.487,0,0,0-5.245,10.108A51.345,51.345,0,0,0,175.132,284.441Zm94.63-1.274L247.9,244.759v20.215l21.862,38.32h10.754V238.519H269.762v44.648Zm-25.476,20.127V238.519H233.532v64.775h10.754Z"/>
  <path id="DDD" class="cls-2" d="M52.951,200.024H69.406V99.262H52.951V200.024ZM75.028,99.262V111.7H79q11.791,0,19.2,3.077a30.791,30.791,0,0,1,11.724,8.066,26.5,26.5,0,0,1,5.827,11.143,52.1,52.1,0,0,1,1.509,12.441q0,20.235-7.405,30.9T85.723,187.993h-10.7v12.031H91.208a54.178,54.178,0,0,0,5.9-.479,40.954,40.954,0,0,0,8.776-2.187,46,46,0,0,0,9.941-5.127,34.8,34.8,0,0,0,9.256-9.365,52.778,52.778,0,0,0,6.787-14.766,73.88,73.88,0,0,0,2.674-21.26,50.369,50.369,0,0,0-3.154-17.568,44.053,44.053,0,0,0-9.53-15.244A46.526,46.526,0,0,0,105.812,103.3a57.907,57.907,0,0,0-22.42-4.033H75.028Zm83.508,100.762h16.455V99.262H158.536V200.024ZM180.613,99.262V111.7h3.976q11.791,0,19.2,3.077a30.792,30.792,0,0,1,11.724,8.066,26.5,26.5,0,0,1,5.827,11.143,52.1,52.1,0,0,1,1.509,12.441q0,20.235-7.405,30.9t-24.134,10.665H180.613v12.031h16.18a54.2,54.2,0,0,0,5.9-.479,40.948,40.948,0,0,0,8.775-2.187,45.986,45.986,0,0,0,9.942-5.127,34.8,34.8,0,0,0,9.256-9.365A52.778,52.778,0,0,0,237.45,168.1a73.88,73.88,0,0,0,2.674-21.26,50.369,50.369,0,0,0-3.154-17.568,44.053,44.053,0,0,0-9.53-15.244A46.536,46.536,0,0,0,211.4,103.3a57.908,57.908,0,0,0-22.42-4.033h-8.364Zm83.508,100.762h16.455V99.262H264.121V200.024ZM286.2,99.262V111.7h3.976q11.792,0,19.2,3.077a30.777,30.777,0,0,1,11.724,8.066,26.49,26.49,0,0,1,5.828,11.143,52.1,52.1,0,0,1,1.509,12.441q0,20.235-7.405,30.9t-24.134,10.665H286.2v12.031h16.18a54.166,54.166,0,0,0,5.9-.479,40.942,40.942,0,0,0,8.776-2.187,45.986,45.986,0,0,0,9.942-5.127,34.8,34.8,0,0,0,9.256-9.365,52.778,52.778,0,0,0,6.787-14.766,73.88,73.88,0,0,0,2.674-21.26,50.369,50.369,0,0,0-3.154-17.568,44.053,44.053,0,0,0-9.53-15.244A46.536,46.536,0,0,0,316.982,103.3a57.908,57.908,0,0,0-22.42-4.033H286.2Z"/>
</svg>
